<svg id="Layer_1" data-name="Layer 1" xmlns="http://www.w3.org/2000/svg" xmlns:xlink="http://www.w3.org/1999/xlink" viewBox="0 0 744.15 309.81"><defs><style>.cls-1{fill:url(#linear-gradient);}.cls-2{fill:url(#linear-gradient-2);}.cls-3{fill:url(#linear-gradient-3);}.cls-23,.cls-4{fill:none;}.cls-5{clip-path:url(#clip-path);}.cls-6{fill:#1c62ef;}.cls-7{clip-path:url(#clip-path-3);}.cls-8{opacity:0.4;}.cls-9{clip-path:url(#clip-path-4);}.cls-10{opacity:0.7;}.cls-11{clip-path:url(#clip-path-5);}.cls-12{opacity:0.9;}.cls-13{clip-path:url(#clip-path-6);}.cls-14{mask:url(#mask);}.cls-15{fill:url(#linear-gradient-4);}.cls-16{fill:#fff;}.cls-17{clip-path:url(#clip-path-12);}.cls-18{mask:url(#mask-2);}.cls-19{fill:url(#linear-gradient-5);}.cls-20{clip-path:url(#clip-path-13);}.cls-21{mask:url(#mask-3);}.cls-22{fill:url(#linear-gradient-6);}.cls-23{stroke:#1c62ef;stroke-miterlimit:10;stroke-width:8px;}</style><linearGradient id="linear-gradient" y1="156.11" x2="1" y2="156.11" gradientTransform="matrix(-156.74, 0, 0, 156.74, 668.24, -24390.58)" gradientUnits="userSpaceOnUse"><stop offset="0" stop-color="#666"/><stop offset="0.77"/><stop offset="0.81" stop-color="#060606"/><stop offset="0.86" stop-color="#161616"/><stop offset="0.91" stop-color="#303030"/><stop offset="0.98" stop-color="#555"/><stop offset="1" stop-color="#666"/></linearGradient><linearGradient id="linear-gradient-2" y1="156.15" x2="1" y2="156.15" gradientTransform="matrix(0, 23.15, 23.15, 0, -3032.97, 53.56)" gradientUnits="userSpaceOnUse"><stop offset="0" stop-color="#fff"/><stop offset="1"/></linearGradient><linearGradient id="linear-gradient-3" y1="156.1" y2="156.1" gradientTransform="matrix(0, 25.37, 25.37, 0, -3375.3, 86.74)" xlink:href="#linear-gradient-2"/><clipPath id="clip-path" transform="translate(0 76.29)"><rect class="cls-4" width="667.66" height="156.11"/></clipPath><clipPath id="clip-path-3" transform="translate(0 76.29)"><path class="cls-4" d="M511.74,78.61a77.5,77.5,0,1,0,77.5-77.5,77.5,77.5,0,0,0-77.5,77.5"/></clipPath><clipPath id="clip-path-4" transform="translate(0 76.29)"><rect class="cls-4" x="548.47" y="71.13" width="119.2" height="51.87"/></clipPath><clipPath id="clip-path-5" transform="translate(0 76.29)"><rect class="cls-4" x="548.47" y="35.57" width="119.2" height="51.87"/></clipPath><clipPath id="clip-path-6" transform="translate(0 76.29)"><rect class="cls-4" x="548.47" width="119.2" height="51.87"/></clipPath><mask id="mask" x="434.34" y="0" width="309.81" height="309.81" maskUnits="userSpaceOnUse"><g transform="translate(0 76.29)"><rect class="cls-1" x="479.67" y="-30.96" width="219.14" height="219.14" transform="translate(108.09 427.72) rotate(-43.56)"/></g></mask><linearGradient id="linear-gradient-4" y1="156.11" x2="1" y2="156.11" gradientTransform="matrix(-156.74, 0, 0, 156.74, 668.24, -24390.58)" gradientUnits="userSpaceOnUse"><stop offset="0" stop-color="#fff"/><stop offset="0.77" stop-color="#fff"/><stop offset="1" stop-color="#fff"/></linearGradient><clipPath id="clip-path-12" transform="translate(0 76.29)"><path class="cls-4" d="M576.64,51.87,543.15,88.22l52.79-1L620,57a3.16,3.16,0,0,0-2.47-5.12Z"/></clipPath><mask id="mask-2" x="526.63" y="92.5" width="111.54" height="107.68" maskUnits="userSpaceOnUse"><g transform="translate(0 76.29)"><rect class="cls-2" x="539.54" y="33.56" width="85.72" height="72.96" transform="translate(54.22 325.23) rotate(-32.64)"/></g></mask><linearGradient id="linear-gradient-5" y1="156.15" x2="1" y2="156.15" gradientTransform="matrix(0, 23.15, 23.15, 0, -3032.97, 53.56)" gradientUnits="userSpaceOnUse"><stop offset="0" stop-color="#1b61ef"/><stop offset="1" stop-color="#1b61ef"/></linearGradient><clipPath id="clip-path-13" transform="translate(0 76.29)"><path class="cls-4" d="M575.2,87.44l-25.88,29.35a4.1,4.1,0,0,0,3.15,6.82l43.47-.8L620,92.55a3.15,3.15,0,0,0-2.47-5.11Z"/></clipPath><mask id="mask-3" x="530.49" y="129.8" width="107.64" height="104.11" maskUnits="userSpaceOnUse"><g transform="translate(0 76.29)"><rect class="cls-3" x="543.08" y="70.15" width="82.46" height="70.82" transform="translate(35.36 331.87) rotate(-32.65)"/></g></mask><linearGradient id="linear-gradient-6" y1="156.1" y2="156.1" gradientTransform="matrix(0, 25.37, 25.37, 0, -3375.3, 86.74)" xlink:href="#linear-gradient-5"/></defs><title>logo-typo</title><g class="cls-5"><g class="cls-5"><path class="cls-6" d="M666.74,78.61a77.5,77.5,0,1,1-77.5-77.5,77.5,77.5,0,0,1,77.5,77.5" transform="translate(0 76.29)"/></g><g class="cls-7"><g class="cls-8"><g class="cls-9"><path class="cls-6" d="M629.58,117.63l37.29-41.29c1.91-2.12.16-5.21-3-5.21H599.26a17.21,17.21,0,0,0-12.75,5.38l-37.24,41.24c-1.93,2.14-.17,5.26,3,5.26h64.59a17.23,17.23,0,0,0,12.75-5.38" transform="translate(0 76.29)"/></g></g><g class="cls-10"><g class="cls-11"><path class="cls-6" d="M629.58,82.06l37.29-41.29c1.91-2.12.16-5.2-3-5.2H599.26a17.2,17.2,0,0,0-12.75,5.37L549.27,82.18c-1.93,2.14-.17,5.26,3,5.26h64.59a17.21,17.21,0,0,0,12.75-5.38" transform="translate(0 76.29)"/></g></g><g class="cls-12"><g class="cls-13"><path class="cls-6" d="M629.58,46.49,666.87,5.2c1.91-2.11.16-5.2-3-5.2H599.26a17.2,17.2,0,0,0-12.75,5.37L549.27,46.61c-1.93,2.14-.17,5.26,3,5.26h64.59a17.18,17.18,0,0,0,12.75-5.38" transform="translate(0 76.29)"/></g></g><path class="cls-6" d="M617.55,51.87H576.64L543.15,88.22l52.79-1L620,57a3.16,3.16,0,0,0-2.47-5.12" transform="translate(0 76.29)"/><path class="cls-6" d="M617.55,87.44H575.2l-25.88,29.35a4.1,4.1,0,0,0,3.15,6.82l43.47-.8L620,92.55a3.15,3.15,0,0,0-2.47-5.11" transform="translate(0 76.29)"/></g><g class="cls-7"><g class="cls-14"><rect class="cls-15" x="479.67" y="-30.96" width="219.14" height="219.14" transform="translate(108.09 504.02) rotate(-43.56)"/></g></g><g class="cls-7"><g class="cls-8"><g class="cls-9"><path class="cls-16" d="M629.58,117.63l37.29-41.29c1.91-2.12.16-5.21-3-5.21H599.26a17.21,17.21,0,0,0-12.75,5.38l-37.24,41.24c-1.93,2.14-.17,5.26,3,5.26h64.59a17.23,17.23,0,0,0,12.75-5.38" transform="translate(0 76.29)"/></g></g><g class="cls-10"><g class="cls-11"><path class="cls-16" d="M629.58,82.06l37.29-41.29c1.91-2.12.16-5.2-3-5.2H599.26a17.2,17.2,0,0,0-12.75,5.37L549.27,82.18c-1.93,2.14-.17,5.26,3,5.26h64.59a17.21,17.21,0,0,0,12.75-5.38" transform="translate(0 76.29)"/></g></g><g class="cls-12"><g class="cls-13"><path class="cls-16" d="M629.58,46.49,666.87,5.2c1.91-2.11.16-5.2-3-5.2H599.26a17.2,17.2,0,0,0-12.75,5.37L549.27,46.61c-1.93,2.14-.17,5.26,3,5.26h64.59a17.18,17.18,0,0,0,12.75-5.38" transform="translate(0 76.29)"/></g></g></g><g class="cls-17"><g class="cls-18"><rect class="cls-19" x="539.54" y="33.56" width="85.72" height="72.96" transform="translate(54.22 401.53) rotate(-32.64)"/></g></g><g class="cls-20"><g class="cls-21"><rect class="cls-22" x="543.08" y="70.15" width="82.46" height="70.82" transform="translate(35.36 408.16) rotate(-32.65)"/></g></g><g class="cls-5"><line class="cls-23" x1="470.33" y1="115.37" x2="470.33" y2="182.89"/><rect class="cls-6" x="203.83" y="115.56" width="17" height="67.33"/><path class="cls-23" d="M392.67,72a33.38,33.38,0,0,0,23.6,57h.24a33.38,33.38,0,0,0,33.38-33.38H414.13a33.37,33.37,0,0,1,33.38-33.38h4.38" transform="translate(0 76.29)"/><path class="cls-6" d="M269.5,134.1l-4-17c17.46,0,31.29-12.25,31.29-27.29V76.93h44.67V57.6h17V93.93H313.6a44.36,44.36,0,0,1-44.1,40.17" transform="translate(0 76.29)"/><polygon class="cls-6" points="358.46 212.22 341.46 212.22 341.46 199.39 327.17 199.39 327.17 182.39 358.46 182.39 358.46 212.22"/><path class="cls-6" d="M255.54,106.85H232.76v-17h22.78a8.25,8.25,0,1,0,0-16.5H232.76v-17h22.78a25.25,25.25,0,1,1,0,50.5" transform="translate(0 76.29)"/><path class="cls-6" d="M190.93,106.85h-77.1v-17h60.1V81.6a8.26,8.26,0,0,0-8.25-8.25H133.17l6-17h26.51A25.27,25.27,0,0,1,190.93,81.6Z" transform="translate(0 76.29)"/><path class="cls-6" d="M91.79,106.85H27.14A26.83,26.83,0,0,1,0,81.1,26.7,26.7,0,0,1,26.71,53.43H41.5l-6,17H26.71A9.7,9.7,0,0,0,17,80.5a10,10,0,0,0,10.13,9.35H91.79a8.56,8.56,0,0,0,8.54-8.55V54.66h17V81.3a25.57,25.57,0,0,1-25.54,25.55" transform="translate(0 76.29)"/><polygon class="cls-6" points="84.5 146.86 50.17 146.86 56.17 129.86 84.5 129.86 84.5 146.86"/><rect class="cls-6" x="140.83" y="105.06" width="18.67" height="17"/></g></g></svg>