<svg id="Layer_1" data-name="Layer 1" xmlns="http://www.w3.org/2000/svg" xmlns:xlink="http://www.w3.org/1999/xlink" viewBox="0 0 575.05 575.05"><defs><style>.cls-1{fill:url(#linear-gradient);}.cls-2{fill:url(#linear-gradient-2);}.cls-3{fill:url(#linear-gradient-3);}.cls-4{fill:none;}.cls-5{clip-path:url(#clip-path);}.cls-6{clip-path:url(#clip-path-2);}.cls-7{mask:url(#mask);}.cls-8{fill:url(#linear-gradient-4);}.cls-9{opacity:0.4;}.cls-10{clip-path:url(#clip-path-4);}.cls-11{fill:#fff;}.cls-12{opacity:0.7;}.cls-13{clip-path:url(#clip-path-5);}.cls-14{opacity:0.9;}.cls-15{clip-path:url(#clip-path-6);}.cls-16{clip-path:url(#clip-path-7);}.cls-17{mask:url(#mask-2);}.cls-18{fill:url(#linear-gradient-5);}.cls-19{clip-path:url(#clip-path-8);}.cls-20{mask:url(#mask-3);}.cls-21{fill:url(#linear-gradient-6);}</style><linearGradient id="linear-gradient" y1="289.77" x2="1" y2="289.77" gradientTransform="matrix(-163.69, 0, 0, 163.69, 314.81, -47284.88)" gradientUnits="userSpaceOnUse"><stop offset="0"/><stop offset="1" stop-color="#fff"/></linearGradient><linearGradient id="linear-gradient-2" y1="289.81" x2="1" y2="289.81" gradientTransform="matrix(0, 42.97, 42.97, 0, -12323.18, 99.42)" gradientUnits="userSpaceOnUse"><stop offset="0" stop-color="#fff"/><stop offset="1"/></linearGradient><linearGradient id="linear-gradient-3" y1="289.8" x2="1" y2="289.8" gradientTransform="matrix(0, 47.08, 47.08, 0, -13513.85, 162.94)" xlink:href="#linear-gradient-2"/><clipPath id="clip-path" transform="translate(143.67 141.61)"><rect class="cls-4" width="289.41" height="289.77"/></clipPath><clipPath id="clip-path-2" transform="translate(143.67 141.61)"><path class="cls-4" d="M0,145.91A143.85,143.85,0,1,0,143.85,2.06,143.85,143.85,0,0,0,0,145.91"/></clipPath><mask id="mask" x="0" y="0" width="575.05" height="575.05" maskUnits="userSpaceOnUse"><g transform="translate(143.67 141.61)"><rect class="cls-1" x="-59.52" y="-57.46" width="406.75" height="406.75" transform="translate(-60.94 139.32) rotate(-43.56)"/></g></mask><linearGradient id="linear-gradient-4" y1="289.77" x2="1" y2="289.77" gradientTransform="matrix(-163.69, 0, 0, 163.69, 314.81, -47284.87)" gradientUnits="userSpaceOnUse"><stop offset="0" stop-color="#1b61ef"/><stop offset="1" stop-color="#1b61ef"/></linearGradient><clipPath id="clip-path-4" transform="translate(143.67 141.61)"><rect class="cls-4" x="68.16" y="132.04" width="221.25" height="96.28"/></clipPath><clipPath id="clip-path-5" transform="translate(143.67 141.61)"><rect class="cls-4" x="68.17" y="66.02" width="221.24" height="96.28"/></clipPath><clipPath id="clip-path-6" transform="translate(143.67 141.61)"><rect class="cls-4" x="68.17" width="221.24" height="96.28"/></clipPath><clipPath id="clip-path-7" transform="translate(143.67 141.61)"><path class="cls-4" d="M120.47,96.28,58.29,163.75l98-1.81L201,105.78a5.85,5.85,0,0,0-4.58-9.5Z"/></clipPath><mask id="mask-2" x="171.32" y="171.69" width="207.04" height="199.87" maskUnits="userSpaceOnUse"><g transform="translate(143.67 141.61)"><rect class="cls-2" x="51.6" y="62.3" width="159.12" height="135.43" transform="translate(-49.41 91.29) rotate(-32.64)"/></g></mask><linearGradient id="linear-gradient-5" y1="289.81" y2="289.81" gradientTransform="matrix(0, 42.97, 42.97, 0, -12323.18, 99.42)" xlink:href="#linear-gradient-4"/><clipPath id="clip-path-8" transform="translate(143.67 141.61)"><path class="cls-4" d="M117.79,162.3l-59.5,67.47,98-1.82L201,171.8a5.85,5.85,0,0,0-4.58-9.5Z"/></clipPath><mask id="mask-3" x="171.32" y="237.71" width="207.04" height="199.87" maskUnits="userSpaceOnUse"><g transform="translate(143.67 141.61)"><rect class="cls-3" x="51.6" y="128.32" width="159.12" height="135.43" transform="translate(-85.03 101.72) rotate(-32.64)"/></g></mask><linearGradient id="linear-gradient-6" y1="289.8" y2="289.8" gradientTransform="matrix(0, 47.08, 47.08, 0, -13513.85, 162.94)" xlink:href="#linear-gradient-4"/></defs><title>logo</title><g class="cls-5"><g class="cls-6"><g class="cls-7"><rect class="cls-8" x="-59.52" y="-57.46" width="406.75" height="406.75" transform="translate(82.73 280.93) rotate(-43.56)"/></g></g><g class="cls-6"><g class="cls-9"><g class="cls-10"><path class="cls-11" d="M218.72,218.34l69.21-76.64c3.55-3.93.31-9.67-5.46-9.67h-120c-9.25,0-18,3.69-23.66,10L69.66,218.56c-3.59,4-.31,9.76,5.52,9.76H195.06c9.24,0,18-3.68,23.66-10" transform="translate(143.67 141.61)"/></g></g><g class="cls-12"><g class="cls-13"><path class="cls-11" d="M218.72,152.32l69.21-76.64c3.55-3.93.31-9.66-5.47-9.66h-120c-9.25,0-18,3.68-23.67,10L69.66,152.54c-3.58,4-.31,9.76,5.52,9.76H195.06c9.25,0,18-3.68,23.66-10" transform="translate(143.67 141.61)"/></g></g><g class="cls-14"><g class="cls-15"><path class="cls-11" d="M218.72,86.3,287.93,9.66c3.55-3.93.31-9.66-5.47-9.66h-120c-9.25,0-18,3.68-23.67,10L69.66,86.52c-3.58,4-.31,9.76,5.52,9.76H195.06c9.25,0,18-3.68,23.66-10" transform="translate(143.67 141.61)"/></g></g></g><g class="cls-16"><g class="cls-17"><rect class="cls-18" x="51.6" y="62.3" width="159.12" height="135.43" transform="translate(94.26 232.9) rotate(-32.64)"/></g></g><g class="cls-19"><g class="cls-20"><rect class="cls-21" x="51.6" y="128.32" width="159.12" height="135.43" transform="translate(58.64 243.33) rotate(-32.64)"/></g></g></g></svg>